<svg width="30" height="30" viewBox="0 0 30 30" fill="none" xmlns="http://www.w3.org/2000/svg">
<rect width="30" height="30" rx="8" fill="#41EDBA" fill-opacity="0.1"/>
<path d="M17.5875 8.83522C17.5575 9.02272 17.5425 9.21022 17.5425 9.39772C17.5425 11.0852 18.9075 12.4495 20.5875 12.4495C20.775 12.4495 20.955 12.4277 21.1425 12.3977V18.4495C21.1425 20.9927 19.6425 22.5002 17.0925 22.5002H11.5507C9 22.5002 7.5 20.9927 7.5 18.4495V12.9002C7.5 10.3502 9 8.83522 11.5507 8.83522H17.5875ZM17.7382 13.3952C17.535 13.3727 17.3333 13.4627 17.2125 13.6277L15.3983 15.9752L13.32 14.3402C13.1925 14.2427 13.0425 14.2045 12.8925 14.2202C12.7432 14.2427 12.6083 14.3245 12.5175 14.4445L10.2982 17.3327L10.2525 17.4002C10.125 17.6395 10.185 17.947 10.41 18.1127C10.515 18.1802 10.6275 18.2252 10.755 18.2252C10.9283 18.2327 11.0925 18.142 11.1975 18.0002L13.08 15.577L15.2175 17.1827L15.285 17.227C15.525 17.3545 15.825 17.2952 15.9975 17.0695L18.165 14.2727L18.135 14.2877C18.255 14.1227 18.2775 13.9127 18.195 13.7252C18.1132 13.5377 17.9325 13.4102 17.7382 13.3952ZM20.6926 7.5C21.6901 7.5 22.5001 8.31 22.5001 9.3075C22.5001 10.305 21.6901 11.115 20.6926 11.115C19.6951 11.115 18.8851 10.305 18.8851 9.3075C18.8851 8.31 19.6951 7.5 20.6926 7.5Z" fill="#41EDBA"/>
</svg>