<svg width="30" height="30" viewBox="0 0 30 30" fill="none" xmlns="http://www.w3.org/2000/svg">
<rect width="30" height="30" rx="8" fill="#E87D7D" fill-opacity="0.1"/>
<path d="M12.21 7.87548C12.6825 7.88985 13.14 7.97235 13.5833 8.1231H13.6275C13.6575 8.13735 13.68 8.1531 13.695 8.16735C13.8608 8.2206 14.0175 8.2806 14.1675 8.3631L14.4525 8.4906C14.565 8.5506 14.7 8.66235 14.775 8.7081C14.85 8.75235 14.9325 8.7981 15 8.84985C15.8333 8.2131 16.845 7.8681 17.8875 7.87548C18.3608 7.87548 18.8333 7.94235 19.2825 8.0931C22.0508 8.9931 23.0483 12.0306 22.215 14.6856C21.7425 16.0424 20.97 17.2806 19.9583 18.2924C18.51 19.6949 16.9208 20.9399 15.21 22.0124L15.0225 22.1256L14.8275 22.0049C13.1108 20.9399 11.5125 19.6949 10.0508 18.2849C9.04576 17.2731 8.27251 16.0424 7.79251 14.6856C6.94501 12.0306 7.94251 8.9931 10.7408 8.07735C10.9583 8.00235 11.1825 7.94985 11.4075 7.9206H11.4975C11.7083 7.88985 11.9175 7.87548 12.1275 7.87548H12.21ZM18.8925 10.2456C18.585 10.1399 18.2475 10.3056 18.135 10.6206C18.03 10.9356 18.195 11.2806 18.51 11.3924C18.9908 11.5724 19.3125 12.0456 19.3125 12.5699V12.5931C19.2983 12.7649 19.35 12.9306 19.455 13.0581C19.56 13.1856 19.7175 13.2599 19.8825 13.2756C20.19 13.2674 20.4525 13.0206 20.475 12.7049V12.6156C20.4975 11.5649 19.8608 10.6131 18.8925 10.2456Z" fill="#E84343"/>
</svg>
