<svg width="340" height="236" viewBox="0 0 340 236" fill="none" xmlns="http://www.w3.org/2000/svg">
<path d="M178 26C178 20.4219 178 17.6328 178.553 15.3311C180.308 8.01812 186.018 2.30829 193.331 0.552601C195.633 0 198.422 0 204 0H296C316.742 0 327.113 0 333.556 6.44365C340 12.8873 340 23.2582 340 44V172.5C340 180.985 340 185.228 337.364 187.864C334.728 190.5 330.485 190.5 322 190.5H271.789C253.831 190.5 244.853 190.5 237.447 194.757C230.041 199.014 225.523 206.773 216.485 222.29L213.707 227.059C211.166 231.423 209.895 233.605 207.812 234.803C205.729 236 203.204 236 198.153 236H44C23.2582 236 12.8873 236 6.44365 229.556C0 223.113 0 212.742 0 192V92C0 73.1438 0 63.7157 5.85786 57.8579C11.7157 52 21.1438 52 40 52H152C157.578 52 160.367 52 162.669 51.4474C169.982 49.6917 175.692 43.9819 177.447 36.6689C178 34.3672 178 31.5781 178 26Z" fill="white"/>
</svg>
