
<svg width="30" height="30" viewBox="0 0 30 30" fill="none" xmlns="http://www.w3.org/2000/svg">
<rect width="30" height="30" rx="8" fill="#11BBF8" fill-opacity="0.1"/>
<path d="M12.4929 22.6767V20.0012C12.4929 19.3182 13.0506 18.7645 13.7386 18.7645H16.2535C16.5839 18.7645 16.9008 18.8948 17.1344 19.1267C17.368 19.3586 17.4992 19.6732 17.4992 20.0012V22.6767C17.4971 22.9606 17.6093 23.2336 17.8108 23.4352C18.0123 23.6367 18.2865 23.75 18.5726 23.75H20.2883C21.0897 23.7521 21.8589 23.4375 22.4263 22.8757C22.9936 22.3139 23.3125 21.5511 23.3125 20.7556V13.1335C23.3125 12.4909 23.0256 11.8814 22.529 11.4691L16.6923 6.84139C15.677 6.02999 14.2222 6.05619 13.2372 6.90361L7.53364 11.4691C7.01365 11.8692 6.70286 12.4806 6.6875 13.1335V20.7478C6.6875 22.4059 8.04146 23.75 9.71165 23.75H11.3883C11.9823 23.75 12.4651 23.2742 12.4694 22.6845L12.4929 22.6767Z" fill="#11BBF8"/>
</svg>
